<?xml version="1.0" encoding="utf-8"?>
<!-- Generator: Adobe Illustrator 16.0.0, SVG Export Plug-In . SVG Version: 6.00 Build 0)  -->
<!DOCTYPE svg PUBLIC "-//W3C//DTD SVG 1.1//EN" "http://www.w3.org/Graphics/SVG/1.1/DTD/svg11.dtd">
<svg version="1.1" id="Layer_1" xmlns="http://www.w3.org/2000/svg" xmlns:xlink="http://www.w3.org/1999/xlink" x="0px" y="0px"
	 width="72.861px" height="83.27px" viewBox="0 0 72.861 83.27" enable-background="new 0 0 72.861 83.27" xml:space="preserve">
<g>
	<path fill="#0A153B" d="M64.326,0H8.535C3.83,0,0,3.83,0,8.576v56.291c0,4.746,3.83,8.576,8.535,8.576H55.75l-2.207-7.702
		l5.329,4.954l5.038,4.664l8.951,7.91V8.576C72.861,3.83,69.031,0,64.326,0z M48.256,54.375c0,0-1.499-1.791-2.748-3.373
		c5.454-1.539,7.535-4.954,7.535-4.954c-1.707,1.124-3.331,1.915-4.787,2.456c-2.082,0.875-4.08,1.458-6.037,1.791
		c-3.997,0.75-7.662,0.541-10.783-0.041c-2.374-0.459-4.414-1.125-6.121-1.791c-0.957-0.375-1.998-0.833-3.039-1.416
		c-0.125-0.083-0.25-0.125-0.375-0.208c-0.084-0.041-0.125-0.083-0.167-0.124c-0.749-0.417-1.165-0.709-1.165-0.709
		s1.998,3.332,7.285,4.913c-1.248,1.583-2.789,3.456-2.789,3.456c-9.201-0.291-12.699-6.328-12.699-6.328
		c0-13.407,5.996-24.273,5.996-24.273c5.996-4.496,11.699-4.371,11.699-4.371l0.416,0.499c-7.493,2.165-10.949,5.454-10.949,5.454
		s0.916-0.5,2.456-1.207c4.455-1.957,7.994-2.498,9.452-2.623c0.248-0.042,0.457-0.084,0.707-0.084
		c2.539-0.332,5.412-0.416,8.41-0.083c3.955,0.458,8.201,1.624,12.531,3.997c0,0-3.288-3.123-10.366-5.287l0.583-0.666
		c0,0,5.704-0.125,11.699,4.371c0,0,5.995,10.866,5.995,24.273C60.995,48.047,57.457,54.084,48.256,54.375z M28.895,34.932
		c-2.373,0-4.246,2.082-4.246,4.621c0,2.54,1.915,4.621,4.246,4.621c2.373,0,4.247-2.081,4.247-4.621
		C33.184,37.014,31.268,34.932,28.895,34.932 M44.092,34.932c-2.373,0-4.246,2.082-4.246,4.621c0,2.54,1.914,4.621,4.246,4.621
		c2.373,0,4.247-2.081,4.247-4.621C48.339,37.014,46.465,34.932,44.092,34.932"/>
</g>
</svg>
