<?xml version="1.0" encoding="utf-8"?>
<!-- Generator: Adobe Illustrator 16.0.0, SVG Export Plug-In . SVG Version: 6.00 Build 0)  -->
<!DOCTYPE svg PUBLIC "-//W3C//DTD SVG 1.1//EN" "http://www.w3.org/Graphics/SVG/1.1/DTD/svg11.dtd">
<svg version="1.1" id="Layer_1" xmlns="http://www.w3.org/2000/svg" xmlns:xlink="http://www.w3.org/1999/xlink" x="0px" y="0px"
	 width="80.269px" height="80.271px" viewBox="0 0 80.269 80.271" enable-background="new 0 0 80.269 80.271" xml:space="preserve">
<g>
	<path fill="#0A153B" d="M40.135,0C29.233,0,27.867,0.046,23.587,0.241c-4.272,0.195-7.19,0.874-9.742,1.867
		c-2.64,1.024-4.878,2.396-7.109,4.627c-2.231,2.232-3.604,4.471-4.63,7.109c-0.991,2.553-1.669,5.471-1.864,9.742
		C0.046,27.869,0,29.234,0,40.135s0.046,12.267,0.241,16.548c0.195,4.272,0.873,7.189,1.864,9.742
		c1.026,2.639,2.398,4.877,4.63,7.108s4.47,3.604,7.109,4.629c2.552,0.992,5.47,1.672,9.742,1.866
		c4.28,0.195,5.646,0.242,16.548,0.242c10.899,0,12.267-0.047,16.548-0.242c4.272-0.194,7.188-0.874,9.742-1.866
		c2.638-1.025,4.876-2.397,7.108-4.629c2.23-2.231,3.603-4.47,4.629-7.108c0.991-2.553,1.671-5.47,1.866-9.742
		c0.195-4.281,0.24-5.647,0.24-16.548s-0.045-12.266-0.24-16.548c-0.195-4.271-0.875-7.189-1.866-9.742
		c-1.026-2.639-2.398-4.877-4.629-7.109c-2.232-2.23-4.471-3.603-7.108-4.627c-2.554-0.993-5.47-1.672-9.742-1.867
		C52.401,0.046,51.034,0,40.135,0L40.135,0L40.135,0z M40.135,7.232c10.717,0,11.985,0.039,16.218,0.233
		c3.912,0.178,6.037,0.832,7.452,1.381c1.872,0.729,3.21,1.599,4.614,3.003c1.405,1.404,2.274,2.742,3.003,4.614
		c0.55,1.415,1.203,3.54,1.381,7.453c0.192,4.232,0.234,5.5,0.234,16.218c0,10.717-0.042,11.985-0.234,16.218
		c-0.178,3.913-0.831,6.038-1.381,7.452c-0.729,1.875-1.598,3.21-3.003,4.615c-1.404,1.404-2.742,2.275-4.614,3.003
		c-1.415,0.549-3.54,1.204-7.452,1.382c-4.232,0.193-5.5,0.232-16.218,0.232s-11.986-0.039-16.218-0.232
		c-3.914-0.178-6.039-0.833-7.453-1.382c-1.874-0.728-3.211-1.599-4.615-3.003c-1.403-1.405-2.273-2.74-3.003-4.615
		c-0.548-1.414-1.202-3.539-1.382-7.452c-0.192-4.232-0.232-5.501-0.232-16.218c0-10.718,0.04-11.985,0.232-16.218
		c0.18-3.913,0.834-6.038,1.382-7.453c0.729-1.872,1.6-3.21,3.003-4.614c1.404-1.404,2.741-2.274,4.615-3.003
		c1.414-0.549,3.539-1.203,7.453-1.381C28.149,7.271,29.417,7.232,40.135,7.232"/>
	<path fill="#0A153B" d="M40.135,53.514c-7.391,0-13.378-5.99-13.378-13.379c0-7.388,5.987-13.378,13.378-13.378
		c7.388,0,13.377,5.99,13.377,13.378C53.512,47.523,47.522,53.514,40.135,53.514L40.135,53.514z M40.135,19.525
		c-11.384,0-20.611,9.228-20.611,20.609s9.228,20.61,20.611,20.61c11.382,0,20.608-9.229,20.608-20.61S51.517,19.525,40.135,19.525
		L40.135,19.525z"/>
	<path fill="#0A153B" d="M66.375,18.71c0,2.661-2.156,4.817-4.816,4.817c-2.661,0-4.815-2.156-4.815-4.817
		c0-2.659,2.154-4.816,4.815-4.816C64.219,13.894,66.375,16.051,66.375,18.71L66.375,18.71z"/>
</g>
</svg>
