<?xml version="1.0" encoding="utf-8"?>
<!-- Generator: Adobe Illustrator 16.0.0, SVG Export Plug-In . SVG Version: 6.00 Build 0)  -->
<!DOCTYPE svg PUBLIC "-//W3C//DTD SVG 1.1//EN" "http://www.w3.org/Graphics/SVG/1.1/DTD/svg11.dtd">
<svg version="1.1" id="Layer_1" xmlns="http://www.w3.org/2000/svg" xmlns:xlink="http://www.w3.org/1999/xlink" x="0px" y="0px"
	 width="84.904px" height="67.404px" viewBox="0 0 84.904 67.404" enable-background="new 0 0 84.904 67.404" xml:space="preserve">
<path fill="#0A153B" d="M10.07,13.753c0.104-1.046-0.296-2.074-1.074-2.774L1.071,1.426V0h24.616l19.025,41.729L61.439,0h23.465
	v1.426l-6.777,6.501c-0.586,0.444-0.875,1.177-0.754,1.9v47.751c-0.121,0.727,0.168,1.458,0.754,1.9l6.618,6.503v1.423H51.448
	v-1.423l6.862-6.661c0.67-0.67,0.67-0.871,0.67-1.901V18.825L39.916,67.248h-2.575l-22.2-48.423v32.454
	c-0.183,1.361,0.27,2.742,1.227,3.723l8.921,10.82v1.426H0v-1.426l8.918-10.82c0.954-0.988,1.381-2.37,1.152-3.723V13.753z"/>
</svg>
