<?xml version="1.0" encoding="utf-8"?>
<!-- Generator: Adobe Illustrator 16.0.0, SVG Export Plug-In . SVG Version: 6.00 Build 0)  -->
<!DOCTYPE svg PUBLIC "-//W3C//DTD SVG 1.1//EN" "http://www.w3.org/Graphics/SVG/1.1/DTD/svg11.dtd">
<svg version="1.1" id="Layer_1" xmlns="http://www.w3.org/2000/svg" xmlns:xlink="http://www.w3.org/1999/xlink" x="0px" y="0px"
	 width="86.03px" height="75.07px" viewBox="0 0 86.03 75.07" enable-background="new 0 0 86.03 75.07" xml:space="preserve">
<g>
	<g>
		<path fill="#0A153B" d="M86.03,8.636c-2.989,1.661-6.643,2.658-9.965,2.99c3.653-2.324,6.312-5.979,7.641-10.297
			c-3.323,1.993-6.977,3.655-11.294,4.65C69.091,2.326,64.771,0,59.789,0c-9.633,0-17.604,8.305-17.604,18.935
			c0,1.327,0,2.989,0.332,4.317C27.902,22.588,14.946,14.947,6.312,3.653C4.65,6.312,3.985,9.633,3.985,13.287
			c0,6.643,2.99,12.29,7.641,15.612c-2.989,0-5.646-0.997-7.972-2.326v0.332c0,8.969,5.979,16.607,13.951,18.602
			c-1.329,0.332-2.989,0.664-4.65,0.664c-0.997,0-2.326,0-3.322-0.332c2.325,7.639,8.635,12.955,16.276,12.955
			c-5.979,4.982-13.619,7.971-21.592,7.971c-1.327,0-2.657,0-4.317-0.332c7.641,5.315,16.94,8.638,26.905,8.638
			c32.221,0,49.824-28.567,49.824-53.479c0-0.664,0-1.661,0-2.324C80.718,15.944,83.706,12.623,86.03,8.636z"/>
	</g>
</g>
</svg>
