<?xml version="1.0" encoding="utf-8"?>
<!-- Generator: Adobe Illustrator 16.0.0, SVG Export Plug-In . SVG Version: 6.00 Build 0)  -->
<!DOCTYPE svg PUBLIC "-//W3C//DTD SVG 1.1//EN" "http://www.w3.org/Graphics/SVG/1.1/DTD/svg11.dtd">
<svg version="1.1" id="Layer_1" xmlns="http://www.w3.org/2000/svg" xmlns:xlink="http://www.w3.org/1999/xlink" x="0px" y="0px"
	 width="112.15px" height="77.348px" viewBox="0 0 112.15 77.348" enable-background="new 0 0 112.15 77.348" xml:space="preserve">
<path fill="#0A153B" d="M110.217,12.086c0-0.482,0-0.967-0.484-1.451v-0.482c-1.451-4.351-5.318-7.251-10.152-7.251h0.967
	c0,0-18.852-2.901-44.473-2.901C30.936,0,11.6,2.901,11.6,2.901h0.967c-4.834,0-8.701,2.9-10.152,7.251v0.482
	c0,0.484,0,0.969-0.482,1.451C1.447,16.921,0,27.072,0,38.674s1.447,21.754,1.932,26.587c0,0.484,0,0.966,0.482,1.45v0.482
	c1.451,4.351,5.318,7.253,10.152,7.253H11.6c0,0,18.854,2.901,44.475,2.901c25.137,0,44.473-2.901,44.473-2.901H99.58
	c4.834,0,8.701-2.902,10.152-7.253v-0.482c0-0.484,0-0.966,0.484-1.45c0.482-4.833,1.934-14.985,1.934-26.587
	S111.182,16.921,110.217,12.086z M72.51,41.09L49.789,57.525c-0.482,0.484-0.965,0.484-1.449,0.484c-0.482,0-0.967,0-1.449-0.484
	c-0.967-0.482-1.451-1.449-1.451-2.415V22.238c0-0.967,0.484-1.936,1.451-2.418c0.967-0.484,1.934-0.484,2.898,0L72.51,36.257
	c0.484,0.482,0.969,1.45,0.969,2.417C73.959,39.641,73.479,40.607,72.51,41.09z"/>
</svg>
